<?xml version="1.0" encoding="UTF-8"?>
<svg id="Layer_2" data-name="Layer 2" xmlns="http://www.w3.org/2000/svg" viewBox="0 0 678.77 183.4">
  <defs>
    <style>
      .cls-1, .cls-2 {
        fill: #fff;
      }

      .cls-3 {
        fill: #c4c3c3;
      }

      .cls-2 {
        font-family: LucidaSans-DemiItalic, 'Lucida Sans';
        font-size: 43.56px;
        font-style: italic;
        font-weight: 300;
      }
    </style>
  </defs>
  <g id="Layer_1-2" data-name="Layer 1">
    <rect class="cls-3" x="205.13" y="38.01" width="4.63" height="107.37"/>
    <g>
      <path class="cls-1" d="M131.34,56.09c-8.07-9.91-25.17-9.31-38.24,1.33-13.06,10.65-17.13,27.3-9.07,37.22,6.89,8.48,20.44,9.25,32.41,2.61-8.59-6.53-12.42-16.73-13.05-19.35-.37.15-2.13,1.11-3.31,7.51-1.2,6.5,1.64,7.72,1.64,7.72l-11.37-.47s-2.13-5.34,2.12-17.16c1.84-4.33,3.67-8.7,5.03-11.91.15-.36.3-.7.43-1.03.22-.49-.86-.36-2.71-.04.29-1.38,3.83-3.57,4.24-3.79,4.44-2.26,12.1-4,10.39.18-1.7,4.19-3.69,9.38-3.69,9.38,8.15-4.88,17.37-10.95,19.19-13.79,2.12-3.26,3.96,7.52.6,12.17-5.73,7.92-17.68,9.2-18.24,9.43,3.23,2.79,11.59,10.16,17.7,14.35,10.51-10.59,13.27-25.29,5.92-34.35Z"/>
      <path class="cls-1" d="M142.34,105.16l19.98-18.59,10.54-21.92-20.81,2.22-31.35-53-26.64-3.33-3.33,6.1-22.2-9.71s4.72-6.94,3.33-6.94-36.63,2.77-36.63,2.77l-15.26,18.31-6.66,2.5L1.94,37.74l-1.94,16.09v9.16l20.26,20.25,33.57-4.99,11.1,6.45v12.97l11.38,19.42v10.54l-3.88,3.88-.28,9.43,20.25,42.45,16.65-2.77,21.36-28.58-2.22-4.72,16.93-13.6-2.77-28.58ZM110.4,126.18c0,1.22-.99,2.21-2.21,2.21h-.4c-.79,0-1.46.46-1.92,1.11-.88,1.27-3.24,2.18-6.01,2.18s-5.12-.91-6.01-2.18c-.45-.65-1.12-1.11-1.91-1.11h-.29c-1.22,0-2.21-.99-2.21-2.21v-.46c0-1.22.99-2.21,2.21-2.21h16.54c1.22,0,2.21.99,2.21,2.21v.46ZM110.39,121.4h-20.22c-1.35,0-2.44-1.09-2.44-2.44s1.09-2.44,2.44-2.44h20.22c1.35,0,2.44,1.09,2.44,2.44s-1.09,2.44-2.44,2.44ZM113.36,114.41h-26.49c-1.63,0-2.96-1.32-2.96-2.96s1.32-2.96,2.96-2.96h26.49c1.63,0,2.96,1.32,2.96,2.96s-1.32,2.96-2.96,2.96ZM120.27,99.75c-13.38,7.95-29.88,6.26-38.79-4.71-9.96-12.23-6.7-31.39,7.27-42.76,13.98-11.39,33.36-10.7,43.31,1.55,8.81,10.82,7.28,27.04-2.85,38.52,7.49,2.47,13.99-2.75,13.99-2.75,0,0,0,6.23-3.07,9.35-2.83,2.87-9.79,6.4-19.86.81Z"/>
      <polygon class="cls-1" points="162.69 134.94 153.47 138.29 153.47 146.25 149.28 153.17 150.33 159.25 153.05 161.34 158.08 159.66 168.98 134.94 168.98 129.28 166.88 126.56 162.69 134.94"/>
    </g>
    <text class="cls-2" transform="translate(242.07 84.76)"><tspan x="0" y="0">Africa Aviation</tspan><tspan x="0" y="42.48">Innovation Summit </tspan></text>
  </g>
</svg>