<?xml version="1.0" encoding="UTF-8"?>
<svg id="Layer_2" data-name="Layer 2" xmlns="http://www.w3.org/2000/svg" viewBox="0 0 668.44 183.4">
  <defs>
    <style>
      .cls-1 {
        fill: #a37d2c;
      }

      .cls-2 {
        fill: #fff;
      }

      .cls-3 {
        fill: #c4c3c3;
      }

      .cls-4 {
        fill: #231f20;
        font-family: LucidaSans-DemiItalic, 'Lucida Sans';
        font-size: 43.56px;
        font-style: italic;
        font-weight: 300;
      }
    </style>
  </defs>
  <g id="Layer_1-2" data-name="Layer 1">
    <g>
      <rect class="cls-3" x="196.28" y="29.63" width="4.63" height="107.37"/>
      <g>
        <g>
          <path class="cls-1" d="M35.24,2.77l-15.26,18.31-6.66,2.5L1.94,37.74l-1.94,16.09v9.16l20.25,20.25,33.57-4.99,11.1,6.45v12.98l11.38,19.42v10.54l-3.88,3.88-.28,9.43,20.25,42.45,16.65-2.77,21.36-28.58-2.22-4.72,16.93-13.6-2.77-28.58,19.98-18.59,10.54-21.92-20.81,2.22-31.35-53-26.64-3.33-3.33,6.1-22.2-9.71s4.72-6.94,3.33-6.94-36.63,2.77-36.63,2.77Z"/>
          <polygon class="cls-1" points="166.88 126.56 162.69 134.94 153.47 138.29 153.47 146.25 149.28 153.17 150.33 159.25 153.05 161.34 158.08 159.66 168.98 134.94 168.98 129.28 166.88 126.56"/>
        </g>
        <g>
          <g>
            <path class="cls-2" d="M132.05,53.83c-9.94-12.25-29.33-12.94-43.31-1.55-13.97,11.37-17.23,30.53-7.27,42.76,9.95,12.24,29.35,12.94,43.31,1.56,13.97-11.38,17.22-30.53,7.26-42.77M122.27,93.29c-13.08,10.65-30.19,11.24-38.24,1.34-8.06-9.92-3.99-26.57,9.07-37.22,13.07-10.64,30.17-11.24,38.24-1.33,8.04,9.9,3.99,26.56-9.07,37.21"/>
            <path class="cls-2" d="M125.96,66.66c3.36-4.65,1.51-15.44-.6-12.17-1.82,2.84-11.05,8.9-19.19,13.79,0,0,1.99-5.19,3.69-9.38,1.71-4.18-5.95-2.43-10.39-.18-.42.21-3.95,2.4-4.24,3.79,1.85-.32,2.93-.45,2.71.04-.13.33-.27.67-.43,1.03-1.36,3.21-3.19,7.58-5.03,11.91-4.25,11.82-2.12,17.16-2.12,17.16l11.37.47s-2.85-1.21-1.64-7.72c1.18-6.41,2.94-7.36,3.31-7.51.67,2.74,4.82,13.81,14.29,20.26,11.47,7.79,19.38,3.9,22.45.79,3.07-3.11,3.07-9.35,3.07-9.35,0,0-8.72,7.01-17.61.96-6.12-4.17-14.62-11.64-17.87-14.46.56-.23,12.5-1.51,18.24-9.43"/>
          </g>
          <g>
            <path class="cls-2" d="M113.36,114.41h-26.49c-1.63,0-2.96-1.32-2.96-2.96s1.32-2.96,2.96-2.96h26.49c1.63,0,2.96,1.32,2.96,2.96s-1.32,2.96-2.96,2.96Z"/>
            <path class="cls-2" d="M110.39,121.4h-20.22c-1.35,0-2.44-1.09-2.44-2.44s1.09-2.44,2.44-2.44h20.22c1.35,0,2.44,1.09,2.44,2.44s-1.09,2.44-2.44,2.44Z"/>
            <path class="cls-2" d="M89.45,125.72v.46c0,1.22.99,2.21,2.21,2.21h.29c.79,0,1.46.46,1.91,1.11.88,1.27,3.24,2.18,6.01,2.18s5.12-.91,6.01-2.18c.45-.65,1.12-1.11,1.91-1.11h.4c1.22,0,2.21-.99,2.21-2.21v-.46c0-1.22-.99-2.21-2.21-2.21h-16.54c-1.22,0-2.21.99-2.21,2.21Z"/>
          </g>
        </g>
      </g>
      <text class="cls-4" transform="translate(231.74 75.53)"><tspan x="0" y="0">Africa Aviation</tspan><tspan x="0" y="42.48">Innovation Summit </tspan></text>
    </g>
  </g>
</svg>